<svg xmlns="http://www.w3.org/2000/svg" viewBox="0 0 256 256" role="img" aria-labelledby="logoTitle logoDesc">
  <title id="logoTitle">BeatWave logo</title>
  <desc id="logoDesc">A neon waveform and play symbol representing music discovery and curation.</desc>
  <defs>
    <linearGradient id="bg" x1="0" y1="0" x2="1" y2="1">
      <stop offset="0%" stop-color="#22c55e" />
      <stop offset="100%" stop-color="#0ea5e9" />
    </linearGradient>
    <linearGradient id="wave" x1="0" y1="0" x2="1" y2="0">
      <stop offset="0%" stop-color="#ecfdf5" />
      <stop offset="100%" stop-color="#dbeafe" />
    </linearGradient>
  </defs>
  <rect x="12" y="12" width="232" height="232" rx="56" fill="#04140b" />
  <rect x="22" y="22" width="212" height="212" rx="48" fill="url(#bg)" opacity="0.95" />
  <path d="M82 78h18v100H82zm35-20h18v140h-18zm35 34h18v72h-18zm35-18h18v108h-18zm35 52h18v4h-18z" fill="#04140b" opacity="0.9" />
  <path d="M64 116c7-8 16-12 22-12 6 0 10 2 16 8 4 5 7 11 12 11 6 0 11-6 18-18 5-8 10-12 17-12 9 0 16 5 22 16" fill="none" stroke="url(#wave)" stroke-width="12" stroke-linecap="round" stroke-linejoin="round"/>
  <path d="M121 112l44 28-44 28V112z" fill="#061a0c" opacity="0.78" />
</svg>
